<svg width="207" height="331" viewBox="0 0 207 331" fill="none" xmlns="http://www.w3.org/2000/svg">
<g opacity="0.2">
<path d="M162.039 270.008L116.502 320.902C108.466 331.617 101.323 327.152 97.7519 323.581L49.5366 272.687L12.0359 296.795L4 291.437L60.2511 168.221H73.6442L68.287 240.544L89.716 253.937L100.43 122.684H111.145L121.859 256.615L143.288 237.865L135.253 165.542H151.324L204.897 291.437L199.54 294.116L162.039 270.008Z" stroke="#C6CEEB" stroke-width="6"/>
<circle cx="105.788" cy="76.164" r="18.429" stroke="#C6CEEB" stroke-width="6"/>
<path d="M126.036 82.9355L140.604 89.5573M85.6092 81.0979L68.2812 89.5573" stroke="#C6CEEB" stroke-width="6" stroke-linecap="round"/>
<path d="M100.31 22.7372H81.0234V31.196H100.31V56.5725H109.953V53.7529V31.196H129.239V22.7372H109.953V3H100.31V22.7372Z" fill="white" stroke="#C6CEEB" stroke-width="6"/>
</g>
</svg>
